# xmcd
#
# Track frame offsets:
#	150
#	14483
#	29175
#	39022
#	52476
#	66548
#	80593
#	90009
#	101974
#	113180
#	125467
#	135454
#	147006
#	158686
#	174416
#	187130
#	196542
#	204295
#	213918
#	230947
#
# Disc length: 3252 seconds
#
# Revision: 0
# Processed by: cddbd v1.5.2PL0 Copyright (c) Steve Scherf et al.
# Submitted via: EasyCDDAExtractor 16.0.8.1
#
DISCID=1e0cb214
DTITLE=Canario and Passarinho - Canario and Passarinho - Eu, Ela e o Garçon
DYEAR=1900
DGENRE=Sertanejo
TTITLE0=Eu, Ela E O Garçon
TTITLE1=Esta Noite Eu Quero Beber
TTITLE2=História Passageira
TTITLE3=Perdoa-Me Se Quiseres
TTITLE4=Pranto Da Alma
TTITLE5=Regresso
TTITLE6=Coração De Um Boemio
TTITLE7=Nem Eu Nem O Garçon
TTITLE8=Historia Do Garçon
TTITLE9=Querem Saber
TTITLE10=Voz Da Boemia
TTITLE11=Lamento
TTITLE12=Sentimento E Boemia
TTITLE13=Duas Inocentes
TTITLE14=Professora Do Pecado
TTITLE15=Refúgio De Dor
TTITLE16=Nosso Drama
TTITLE17=Teu Vício
TTITLE18=Nosso Erro
TTITLE19=Me Da Um Beijo
EXTD=
EXTT0=
EXTT1=
EXTT2=
EXTT3=
EXTT4=
EXTT5=
EXTT6=
EXTT7=
EXTT8=
EXTT9=
EXTT10=
EXTT11=
EXTT12=
EXTT13=
EXTT14=
EXTT15=
EXTT16=
EXTT17=
EXTT18=
EXTT19=
PLAYORDER=
